<svg id="icon_wallet" xmlns="http://www.w3.org/2000/svg" width="433.063" height="470.339" viewBox="0 0 433.063 470.339">
  <path id="Path_15" data-name="Path 15" d="M-1423.74,2213.808a228.812,228.812,0,0,1-23.791,7.479c-16.211,4.453-33.321,2.694-45.8,12.271-7.051,5.409-22.9,21.555-33.453,37.265q-1.49,2.217-2.827,4.414c15.531,5.909,30.667,11.109,45.691,14.169,3.128-3.375,6.937-6,10.907-5.3a38.183,38.183,0,0,1,7.855,2.275c5.44,2.244,10.124,5.773,12.76,10.49.233.416.454.838.654,1.272.46,1.474,1.022,3.249,1.441,4.984.028.2.058.394.079.6l.061.018a12.88,12.88,0,0,1,.387,4.484c-2.417,14.921-11.3,21.146-25.308,32.582s.617,29.771,15.59,20.413c1.874-1.172,3.843-2.614,5.862-3.912-1.485,8.933-2.981,17.691-4.487,26.691h16.223c2.287-13,4.551-27.075,6.784-40.574,7.65-7.085,14.056-15.551,16.546-26.178l1.823-6.133h-.072c6.7-16.854,20.147-29.264,28.989-38.049,1.363-1.354,2.979-2.905,4.713-4.55Z" transform="translate(1751.063 -2118.661)" fill="#292929"/>
  <path id="Path_16" data-name="Path 16" d="M-1520.385,2384a51.152,51.152,0,0,0,9.716-22.675c3.294-18.438-1.826-36.762-12.124-49.232,16.152,5.7,32.5,10.459,48.986,12.453,5.2-4.7,8.985-9.215,11.587-15.025-27.41-1.124-55.163-11.767-84.182-23.164-30.676-12.047-62.4-24.357-94.4-24.357h-.026a7.8,7.8,0,0,0-7.887,6.432c-5.749,33.965-11.407,67.718-16.848,100.708-.439,2.666-.88,5.279-1.316,7.932a7.531,7.531,0,0,0,2.243,6.72.681.681,0,0,0,.508.208Zm-103.833-14.019c-.751-13.021-8.817-24.582-20.757-27.334q3.2-19.251,6.471-38.745c13.005-2.816,24.524-10.531,29.67-22.229,16.09,3.827,32.366,9.9,49.11,16.431-13.2,3.746-23.978,16.723-27.259,35.189-3.291,18.419,1.823,36.869,12.114,49.363C-1591.137,2376.876-1607.607,2372.059-1624.218,2369.981Zm70.731,6.778q-2.112-.828-4.225-1.651a3.492,3.492,0,0,1-2.144-3.337l1.074-5.932a24.635,24.635,0,0,1-8.6-6.624,2.369,2.369,0,0,1-.228-2.805q1.2-1.864,2.393-3.724a1.818,1.818,0,0,1,1.683-.8,2.878,2.878,0,0,1,1.947,1.025,21.21,21.21,0,0,0,7.954,5.672c3.4,1.333,5.993.58,6.439-1.883.353-1.94-.376-4.053-5.117-8.044-5.745-4.753-11.442-10.579-10.085-18.072,1.068-5.908,6.31-8.82,12.37-8.2q.564-3.108,1.126-6.213c.221-1.22,1.3-1.55,2.563-1.054q2.08.816,4.159,1.627a2.184,2.184,0,0,1,1.509,2.649q-.515,2.845-1.03,5.689a24.6,24.6,0,0,1,7.369,5.418c.864.914,1.294,2.291.716,3.148q-1.224,1.813-2.449,3.624a1.793,1.793,0,0,1-1.6.768,2.813,2.813,0,0,1-1.883-.9,18.916,18.916,0,0,0-6.969-4.761c-4.47-1.754-5.28.668-5.423,1.452-.324,1.778.46,3.358,5.937,8.027,5.1,4.314,10.767,10.273,9.288,18.447-1.1,6.1-6.028,9.469-12.923,8.6l-1.161,6.412A1.923,1.923,0,0,1-1553.487,2376.759Z" transform="translate(1751.063 -2118.661)" fill="#292929"/>
  <path id="Path_17" data-name="Path 17" d="M-1417.485,2186.5a5.184,5.184,0,0,0-1.179,7.391l55.394,74.564a5.222,5.222,0,0,0,4.192,2.1,4.8,4.8,0,0,0,2.847-.936l38.231-26.781V2118.661Z" transform="translate(1751.063 -2118.661)" fill="#292929"/>
  <path id="Path_18" data-name="Path 18" d="M-1699.7,2401a26.58,26.58,0,0,0-6.256.76,26.569,26.569,0,0,0-19.892,21.012l-7.537,41,129.026,28.961A19.89,19.89,0,0,1-1589.7,2486h51.294a19.9,19.9,0,0,1,14.847,6.94l127.53-28.953-8.273-41.636a26.623,26.623,0,0,0-23.928-21.286c-.711-.058-1.426-.065-2.149-.065Z" transform="translate(1751.063 -2118.661)" fill="#292929"/>
  <path id="Path_19" data-name="Path 19" d="M-1518.765,2508.473A19.793,19.793,0,0,1-1538.408,2526H-1589.7a19.8,19.8,0,0,1-19.681-17.778l-126.9-28.691-14.338,78a26.592,26.592,0,0,0,5.721,21.858,26.547,26.547,0,0,0,20.427,9.606h320.837a26.532,26.532,0,0,0,20.548-9.753,26.537,26.537,0,0,0,5.53-22.065l-15.356-77.378Z" transform="translate(1751.063 -2118.661)" fill="#292929"/>
  <path id="Path_20" data-name="Path 20" d="M-1535.359,2202.47a7.967,7.967,0,0,0,3.946,1.046,8,8,0,0,0,6.962-4.047l4.429-7.79a8,8,0,0,0-3-10.909,8,8,0,0,0-10.909,3l-4.428,7.789A8,8,0,0,0-1535.359,2202.47Z" transform="translate(1751.063 -2118.661)" fill="#292929"/>
  <path id="Path_21" data-name="Path 21" d="M-1555.416,2237.746a7.961,7.961,0,0,0,3.947,1.047,8,8,0,0,0,6.962-4.047l7.69-13.526a8,8,0,0,0-3-10.908,8,8,0,0,0-10.909,3l-7.69,13.526A8,8,0,0,0-1555.416,2237.746Z" transform="translate(1751.063 -2118.661)" fill="#292929"/>
  <path id="Path_22" data-name="Path 22" d="M-1604.254,2173.191a8,8,0,0,0,7.9,6.794,8.1,8.1,0,0,0,1.216-.092,8,8,0,0,0,6.7-9.116l-2.063-13.517a8,8,0,0,0-9.115-6.7,8,8,0,0,0-6.7,9.115Z" transform="translate(1751.063 -2118.661)" fill="#292929"/>
  <path id="Path_23" data-name="Path 23" d="M-1593.683,2189.433a8,8,0,0,0-6.7,9.115l5.1,33.451a8,8,0,0,0,7.9,6.794,7.994,7.994,0,0,0,1.217-.093,8,8,0,0,0,6.7-9.115l-5.1-33.451A8,8,0,0,0-1593.683,2189.433Z" transform="translate(1751.063 -2118.661)" fill="#292929"/>
  <path id="Path_24" data-name="Path 24" d="M-1648.306,2208.373a8,8,0,0,0,7,4.107,7.972,7.972,0,0,0,3.886-1.011,8,8,0,0,0,3.095-10.883l-9.42-16.911a8,8,0,0,0-10.882-3.1,8,8,0,0,0-3.1,10.883Z" transform="translate(1751.063 -2118.661)" fill="#292929"/>
  <path id="Path_25" data-name="Path 25" d="M-1636.722,2229.167l3.074,5.518a7.994,7.994,0,0,0,7,4.108,7.955,7.955,0,0,0,3.885-1.012,8,8,0,0,0,3.1-10.882l-3.073-5.517a8,8,0,0,0-10.881-3.1A8,8,0,0,0-1636.722,2229.167Z" transform="translate(1751.063 -2118.661)" fill="#292929"/>
</svg>
