<svg id="icon_bag" xmlns="http://www.w3.org/2000/svg" width="398.706" height="352.861" viewBox="0 0 398.706 352.861">
  <path id="Path_9" data-name="Path 9" d="M-1505,1244.6v-.265c0-5.324-3.716-9.331-9.04-9.331h-33.246c-4.293,0-5.934,1.693-8.414,5.95-3.035,5.207-19.76,36.05-19.76,36.05H-1625v62h48.62a23.85,23.85,0,0,0,4.27,7.581c2.344-1.579,4.636-3.07,6.855-4.545,13.476-8.959,28.749-19.1,28.749-25.358,0-7.8-2.172-16.819-5.367-26.367a34.4,34.4,0,0,1-10.546,5.79l-3.068-9.515c10.123-3.264,22.151-17.586,19.487-31.586h21.96C-1508.716,1255-1505,1249.919-1505,1244.6Z" transform="translate(1743 -1192.756)" fill="#292929"/>
  <path id="Path_10" data-name="Path 10" d="M-1638.7,1495.819c7.72,33.739,68.1,49.8,146.185,49.8s138.464-16.059,146.184-49.8c6.331-27.666-1.724-64.966-29.35-96.994-17.319-20.078-37.962-33.45-54.99-44.785a17.865,17.865,0,0,1-11.657,4.3c-.238,0-.476-.264-.716-.282l-.144-.01c-9.33-.484-27.856-2.9-36.974-4.583-10.338-1.9-17.284-10.737-17.284-21.978a13.115,13.115,0,0,1,.9-4.9c-2.882-3.827-4.48-8.833-4.756-14.925a23.517,23.517,0,0,1,2.022-10.916,24.072,24.072,0,0,1-3.711-13.3,23.758,23.758,0,0,1,4.768-14.648,20.445,20.445,0,0,1-1.182-6.964c0-10.406,7.415-20.626,16.53-22.783,11.406-2.7,37.178-4.05,41.915-4.05.308,0,.625,0,.945.007,5.645-14.423,10.192-28.495,10.767-41.325a4.645,4.645,0,0,0-3.662-4.841,5.246,5.246,0,0,0-.928-.083c-5.165,0-9.682,7.522-17.581,7.522-10.145,0-10.145-5.88-20.29-5.88s-12.924,6.255-20.809,6.255-10.664-6.255-20.809-6.255-10.145,5.88-20.291,5.88c-7.9,0-12.416-7.522-17.58-7.522a5.165,5.165,0,0,0-.929.083,4.644,4.644,0,0,0-3.661,4.841c.389,8.693,2.611,17.959,5.752,27.515a20.3,20.3,0,0,1,2.748-.195h33.246c10.855,0,19.04,8.31,19.04,19.331v.265c0,11.251-8.541,20.4-19.04,20.4H-1526.2a39.37,39.37,0,0,1-3.823,10.941c5.411,14.268,9.519,28.143,9.519,40.754,0,27.025-51.963,39.371-88.844,82.13C-1636.976,1430.853-1645.031,1468.153-1638.7,1495.819Zm119.552-15.319,2.841-7.929a4.051,4.051,0,0,1,2.541-2.477,4.067,4.067,0,0,1,3.522.475,27.748,27.748,0,0,0,14.81,4.408c6,0,10.064-3.034,10.064-7.55,0-3.563-1.788-6.684-10.788-10.333-10.881-4.266-21.935-10.5-21.935-24.219,0-10.815,7.094-19.275,18.094-22.3v-11.4c0-2.234,1.355-3.176,3.59-3.176h7.337c2.235,0,4.073.942,4.073,3.176V1409.6a29.265,29.265,0,0,1,13.369,4.4,4.041,4.041,0,0,1,1.723,4.922l-2.958,7.81a4.044,4.044,0,0,1-2.416,2.374,4.047,4.047,0,0,1-3.374-.3,24.661,24.661,0,0,0-12.9-3.49c-7.885,0-8.5,4.693-8.5,6.131,0,3.26,1.758,5.441,12.174,9.752,9.691,3.952,21.208,10.417,21.208,25.391,0,11.162-7.327,20.2-18.327,23.36v11.759c0,2.234-2.55,4.283-4.784,4.283h-7.455a4.024,4.024,0,0,1-3.761-4.283v-10.87c-6-.72-12.522-2.815-16.551-5.692A4.114,4.114,0,0,1-1519.149,1480.5Z" transform="translate(1743 -1192.756)" fill="#292929"/>
  <path id="Path_11" data-name="Path 11" d="M-1428.707,1256.686c-2.005-4.271-6.512-6.489-11.232-6.489,0,0-30.343,1.946-40.861,4.435-4.591,1.087-8.376,6.826-8.376,11.2a7.555,7.555,0,0,0,2.413,5.444l31.183,1.64a1.748,1.748,0,0,1,1.653,1.836,1.753,1.753,0,0,1-1.689,1.654l-30.719.976a10.623,10.623,0,0,0-6.427,10.062c0,4.029,1.525,6.935,4.4,8.911l32.767,1.285a1.745,1.745,0,0,1,1.677,1.813,1.752,1.752,0,0,1-1.677,1.677l-31.068,1.219a9.256,9.256,0,0,0-4.4,8.688c.211,4.655,1.537,7.514,3.739,9.275l31.727,1.346a1.746,1.746,0,0,1,1.671,1.819,1.754,1.754,0,0,1-1.671,1.672l-28.472,1.207a6.012,6.012,0,0,0-3.055,5.127c0,6.214,4.158,9.444,8.78,10.295,8.827,1.626,24.986,3.506,33.991,3.506,5.463,0,12.354-4.489,12.354-11.151v-2.063c0-2.708-.519-6.075.367-8.667,1.348-3.945,3.536-7.089,3.536-11.211,0-3.518-1.468-8.18-.948-12.807.489-4.355,2.967-8.679,2.967-11.99,0-3.81-3.248-8.607-4.4-13.615-.669-2.905,1.735-6.5,2.522-10.49-.018-.25-.041-.506-.041-.738v-.079A23.668,23.668,0,0,0-1428.707,1256.686Z" transform="translate(1743 -1192.756)" fill="#292929"/>
  <path id="Path_12" data-name="Path 12" d="M-1641,1266h-102v85h102Z" transform="translate(1743 -1192.756)" fill="#292929"/>
</svg>
