<svg id="icon_money" xmlns="http://www.w3.org/2000/svg" width="402.164" height="367.996" viewBox="0 0 402.164 367.996">
  <path id="Path_13" data-name="Path 13" d="M-1698.213,1887.023a15.707,15.707,0,0,1,13.256-4.708c52.274,6.235,100.412-9.237,151.371-25.619,51.873-16.676,105.513-33.921,163.334-25.749a15.933,15.933,0,0,1,13.434,13.286l5.9,36.965c12.526-16.119,14.837-33.229,10.523-47.11-3.958-12.738-18.075-27.974-21.914-42.714-3.2-12.263-3.086-29.63,13.02-32.917-16.764-10.19-29.432,7.809-33.193,17.614-3.2,8.332-1.7,22.332-25.924,27.213,11.117-28.83-5.55-44.242-22.95-57.441-7.654-5.806-21.864-11.89-29-18.318s-11.2-17.981-5.422-25.659c-8.7,1.262-17.565,2.577-25.418,6.52s-14.656,11.041-15.9,19.741c-3.094,21.668,16.139,25.377,17.149,40.157,1.062,15.536-11.9,22.931-12.64,43.82-21.153-4.141-15.913-23.2-21.263-35.577-6.646-15.369-23.407-21.066-43.083-20.219,7.809,5.044,15.125,13.854,16.285,25.621.912,9.251-4.978,16.834-17.943,27.037-9.617,7.568-18.644,19.282-17.6,33.1-14.016-.814-21.822-18.234-16.129-31.067,7.54-17,7.181-35.544-2.205-44.7s-21.475-15.534-29.411-25.97-6.364-21.054,1.209-35.062c-15.81,5.646-28.93,12.69-40.544,23.159s-19.935,25.865-17.94,41.373c2.791,21.7,24.637,39.821,20.277,61.264-2.2,10.835-11.061,21.24-7.3,31.637-11.614-1.334-9.752-22.475-13.572-34.079-6.2-18.84-28.361-22.833-48.758-20.433,16.1,10.563,30.495,26.5,29.3,45.718-.963,15.462-10.819,25.694-14.206,40.811-4.07,18.166,10.081,38.093,28.354,40.8l-5.362-35.12A15.684,15.684,0,0,1-1698.213,1887.023Z" transform="translate(1740.562 -1701.866)" fill="#292929"/>
  <path id="Path_14" data-name="Path 14" d="M-1347.793,2006.877l-23.537-154.167a8,8,0,0,0-6.565-6.679c-54.451-9.266-104.645,8.68-153.188,26.037-48.749,17.43-94.8,33.893-145.114,25.328a8,8,0,0,0-6.951,2.182,8,8,0,0,0-2.3,6.913l23.536,154.166a8,8,0,0,0,6.565,6.679,180.2,180.2,0,0,0,30.339,2.526c6.57,0,13.082-.342,19.542-.966,35.779-3.456,69.935-15.664,103.307-27.6,48.749-17.43,94.8-33.9,145.116-25.329a8,8,0,0,0,6.95-2.181,7.994,7.994,0,0,0,1.9-2.973A7.988,7.988,0,0,0-1347.793,2006.877Zm-277.049-92.6c26.751-3.093,52.6-10.906,77.918-19.644-18.905,17.757-29.495,48.867-24.706,80.229,4.815,31.545,23.546,54.158,45.665,57.9-26.074,9.092-51.616,17-77.73,19.925-6.711-21.383-26.527-36.147-49.694-42.221l-8.221-53.849C-1639.512,1955.9-1624.952,1936.348-1624.842,1914.28Zm244.989-11.381,8.221,53.849c-22.1.723-36.658,20.27-36.768,42.338-26.751,3.093-52.6,10.906-77.917,19.645,18.905-17.756,29.493-48.866,24.706-80.229-4.816-31.544-23.545-54.158-45.665-57.9,26.073-9.091,51.616-17,77.729-19.924C-1422.836,1882.06-1403.019,1896.824-1379.853,1902.9Zm-130.448,64.564c-.457-2.988-2.345-5.076-10.138-5.517-9.4-.4-19.277-2.485-21.036-14.005-1.383-9.071,3.51-18.221,11.757-23.838q-.73-4.781-1.459-9.56a3.959,3.959,0,0,1,2.7-4.275l5.972-2.135c1.819-.651,3.509.082,3.8,1.957q.668,4.374,1.336,8.748a26.279,26.279,0,0,1,11.45-.17,2.951,2.951,0,0,1,2.034,3.638l-1.41,7.4a4.5,4.5,0,0,1-1.664,2.686,3.448,3.448,0,0,1-2.785.725,18.717,18.717,0,0,0-10.951.82c-6.418,2.293-6.319,6.405-6.133,7.612.417,2.734,2.129,4.059,11.16,4.641,8.393.483,18.6,2.623,20.525,15.194,1.431,9.361-3.706,19.124-11.935,24.865l1.506,9.864c.286,1.874-1.5,4.5-3.321,5.154q-3.034,1.085-6.068,2.168a3.119,3.119,0,0,1-4.042-2.526l-1.392-9.119c-5.849,1.442-10.358,1.168-14.012-.115a2.986,2.986,0,0,1-1.7-3.527q.651-3.723,1.3-7.449a4.466,4.466,0,0,1,1.752-2.8,3.373,3.373,0,0,1,2.927-.6,20.91,20.91,0,0,0,12.617-.576C-1512.624,1974.973-1509.723,1971.251-1510.3,1967.463Z" transform="translate(1740.562 -1701.866)" fill="#292929"/>
</svg>
