<svg id="icon_criminal" xmlns="http://www.w3.org/2000/svg" width="347.329" height="431.888" viewBox="0 0 347.329 431.888">
  <path id="Path_1" data-name="Path 1" d="M-1393.607,896.107l-.215-.044.189,0-9.361-104.955c-2.158-11.394-10.2-37.111-21.75-42.373l-63.729-22.995a51.081,51.081,0,0,1-8.438-4.846,84.251,84.251,0,0,1-18.488,16.339c-15.285,10.06-34.04,15.83-51.457,15.83s-36.173-5.769-51.458-15.83a84.229,84.229,0,0,1-18.521-16.378,51.075,51.075,0,0,1-8.494,4.885l-63.72,22.995c-11.552,5.262-19.575,30.979-21.733,42.373l-9.47,104.954-.018,0a42.014,42.014,0,0,0,.628,14.316c5.429,24.833,32.5,40.54,47.984,27.73a21.8,21.8,0,0,0,3.474-3.267v35.706h242.408V933.254c1.789,1.807,3.26,3.443,4.967,4.855,15.5,12.817,41.509-2.884,46.58-27.731A43.583,43.583,0,0,0-1393.607,896.107Zm-30.236-38.2c0,2.248-2.111,5.184-2.529,8.143-.444,3.142.818,6.308.818,8.7,0,2.8-1.825,4.935-2.975,7.614-.757,1.76-.252,4.047-.252,5.885v1.4c0,4.524-5.944,7.574-10.608,7.574a255.006,255.006,0,0,1-29.064-2.381c-3.946-.579-7.5-2.772-7.5-6.991-.017-1.429.947-2.5,2.31-3.3l24.58-.86a1.343,1.343,0,0,0,1.3-1.375,1.334,1.334,0,0,0-1.282-1.283l-27.343-.956c-1.714-1.208-2.743-3.113-2.913-6.113a5.893,5.893,0,0,1,3.3-5.641l26.96-.943a1.329,1.329,0,0,0,1.282-1.375,1.334,1.334,0,0,0-1.282-1.283l-28.423-.994a6.426,6.426,0,0,1-3.3-5.786c0-2.873,1.7-5.081,4.454-6.4l27.271-.954a1.329,1.329,0,0,0,1.282-1.375,1.334,1.334,0,0,0-1.282-1.283L-1475.6,847a4.769,4.769,0,0,1-2.109-3.738c0-2.97,3.231-6.867,7.15-7.6,8.979-1.691,34.881-3.012,34.881-3.012,4.638,0,9.039,1.992,10.215,5.814,1.209,3.932-2.921,7.5-2.139,10.2C-1426.619,852.062-1423.843,855.319-1423.843,857.906Zm-239.207-22.248c3.92.738,7.151,4.635,7.151,7.6a4.77,4.77,0,0,1-2.11,3.738l-26.554.929a1.334,1.334,0,0,0-1.282,1.283,1.329,1.329,0,0,0,1.282,1.375l27.271.954c2.756,1.317,4.453,3.524,4.453,6.4a6.426,6.426,0,0,1-3.3,5.786l-28.423.994a1.334,1.334,0,0,0-1.282,1.283,1.329,1.329,0,0,0,1.282,1.375l26.96.943a5.891,5.891,0,0,1,3.3,5.641c-.171,3-1.2,4.9-2.913,6.113l-27.343.956a1.334,1.334,0,0,0-1.282,1.283,1.334,1.334,0,0,0,1.288,1.375l24.568.86a3.878,3.878,0,0,1,2.289,3.3c0,4.219-3.6,6.413-7.546,6.991a256.523,256.523,0,0,1-29.151,2.381c-4.664,0-10.782-3.049-10.782-7.574v-1.4c0-1.838.678-4.124-.077-5.885-1.151-2.679-2.8-4.814-2.8-7.614,0-2.388,1.262-5.554.818-8.7-.418-2.958-2.529-5.895-2.529-8.143,0-2.588,2.776-5.845,3.761-9.245.781-2.7-3.349-6.268-2.14-10.2,1.176-3.822,5.577-5.814,10.215-5.814C-1697.931,832.647-1672.029,833.968-1663.05,835.659ZM-1437.783,923c-3.048,0-10.676-1.152-18.726-2.334v12.491a3.335,3.335,0,0,1-3.479,3.4h-213.635a3.64,3.64,0,0,1-3.827-3.4V920.663c-7.156,1.182-15.5,2.334-18.552,2.334-11.336,0-19.452-7.312-23.358-16.289a24.546,24.546,0,0,1-.974-13.933,21.27,21.27,0,0,1,2.468-3.777,4.234,4.234,0,0,1,.395,1.533c-.213,4.645.408,8.837,2.065,11.177,3.953,5.579,10.506,10.51,19.513,10.51,8.4,0,25.325-3.564,32.717-4.647,10.643-1.56,18.077-9.59,18.077-19.528a12.873,12.873,0,0,0-.154-2.029,9.649,9.649,0,0,0,.385-1.164,21.256,21.256,0,0,0,3.05-10.171,18.3,18.3,0,0,0-1.012-7.24,19.136,19.136,0,0,0,2.464-9.5,18.744,18.744,0,0,0-3.475-10.968,16.562,16.562,0,0,0,.413-3.708c0-9.153-7.878-18.062-17.425-19.86-4.028-.759-10.335-1.513-16.6-2.134v-41.5a3.581,3.581,0,0,1,3.827-3.329h213.635a3.275,3.275,0,0,1,3.479,3.329v41.5c-6.261.621-12.394,1.376-16.422,2.134-9.547,1.8-17.282,10.706-17.282,19.86a16.568,16.568,0,0,0,.428,3.708,18.744,18.744,0,0,0-3.467,10.968,19.139,19.139,0,0,0,2.467,9.5,18.312,18.312,0,0,0-1.011,7.24,21.274,21.274,0,0,0,3.051,10.171,9.63,9.63,0,0,0,.385,1.164,12.99,12.99,0,0,0-.154,2.029c0,9.938,7.434,17.968,18.077,19.528,7.392,1.083,24.312,4.647,32.716,4.647,9.008,0,15.559-4.931,19.512-10.51,1.658-2.34,2.276-6.532,2.063-11.177a4.183,4.183,0,0,1,.387-1.533,20.883,20.883,0,0,1,2.454,3.777c.647,1.807,1.167,8.877-1.033,13.933C-1418.245,915.685-1426.448,923-1437.783,923Z" transform="translate(1740.611 -538.661)" fill="#292929"/>
  <path id="Path_2" data-name="Path 2" d="M-1464.728,605.585a17.437,17.437,0,0,0-5.54-8.082,15.278,15.278,0,0,0-8.477-3.265c-.012-.409-.045-.715-.062-1.122-.416-10.014-2.194-21.276-4.891-27.8-4.25-10.275-13.789-22.33-18.47-26.815-14.292-13.693-33.913-21.335-55.248-21.335s-40.956,7.693-55.247,21.385c-4.682,4.486-8.763,8.834-11.994,15.137-1.48,2.888-4.472,8.655-5.776,11.628-3.845,8.771-5.345,18.535-5.653,29.011-.02,0-.037-.042-.056-.04a15.279,15.279,0,0,0-8.422,3.235,17.456,17.456,0,0,0-5.632,8.314c-.069.2-.127.627-.192.627l-1.23,11.628c.074,1.789.21,3.2.439,4.9a54.162,54.162,0,0,0,3.989,14.688c2.445,5.49,5.767,9.831,9.738,12.51a18.562,18.562,0,0,0,7.108,2.949c.111.606.208,1,.336,1.594,2.841,13.055,7.084,28.46,12.9,34.686,14.7,15.739,37.437,27.856,59.643,27.856,22.179,0,47.28-10.134,59.6-27.825,5.854-8.409,12.073-27.552,13.384-36.263a18.558,18.558,0,0,0,7.108-2.954c3.9-2.627,7.164-6.842,9.594-12.184A54.277,54.277,0,0,0-1463.652,623c.229-1.7.364-3.113.439-4.9Zm-106.165,76.178a16.489,16.489,0,0,1,13.425-6.567,16.486,16.486,0,0,1,13.424,6.567.892.892,0,0,1-.944,1.4,50.042,50.042,0,0,0-12.48-1.748,50.042,50.042,0,0,0-12.481,1.748A.893.893,0,0,1-1570.893,681.762Zm85.51-43.408a3.8,3.8,0,0,1-3.337.609,7.157,7.157,0,0,0-5.683.942,7.152,7.152,0,0,0-3.148,4.824q-.636,3.848-1.311,7.442c-16.125,5.645-47.927,8.926-59.177,9.237-10.943-.3-41.348-3.415-57.844-8.78-.485-2.556-.954-5.2-1.4-7.9a7.159,7.159,0,0,0-3.148-4.825,7.158,7.158,0,0,0-3.913-1.164,7.169,7.169,0,0,0-1.769.222,3.793,3.793,0,0,1-3.338-.609c-2.656-1.792-6.225-7.363-7.545-17.165-1.142-8.47.557-11.867,1.308-12.461.445-.352,1.96-.331,4.236.543a7.155,7.155,0,0,0,6.708-.848,7.156,7.156,0,0,0,3.007-6.055c-.055-1.794-.084-3.5-.084-5.081,0-14.23,3.394-26.88,9.883-37.308,7.313-7.771,14.348-11.2,22.575-9.365,11.418,2.545,19.625,6.311,32.218,6.311s20.8-3.766,32.216-6.311c7.659-1.708,14.283,1.15,21.061,7.821,7.135,10.711,10.854,23.919,10.854,38.853,0,1.549-.028,3.26-.083,5.083a7.153,7.153,0,0,0,3.009,6.053,7.153,7.153,0,0,0,6.706.847c2.276-.874,3.792-.894,4.235-.543.751.594,2.451,3.991,1.309,12.461C-1479.157,630.993-1482.728,636.563-1485.383,638.354Z" transform="translate(1731.222 -517.171)" fill="#292929"/>
  <path id="Path_3" data-name="Path 3" d="M-1490.37,623.913c.166-6.82-6.958-13.44-12.5-14.5-11.111-2.133-24.625,1.992-34.325,7.514v0a34.911,34.911,0,0,1-33.231.051c-9.708-5.546-23.269-9.7-34.412-7.562-5.538,1.063-12.662,7.682-12.5,14.5.152,6.227,7.455,11.942,12.5,15.048,8.205,5.057,24.154,3.955,34.331.53,4.472-.645,11.181-4.653,16.344-4.653,5.038,0,11.366,3.35,16.733,4.829h0c9.839,3.707,26.792,3.728,34.615-.7C-1497.658,636.043-1490.522,630.139-1490.37,623.913Zm-81.516,5.669c-1.616,2.794-9.453,4.91-14.876,3.7s-12.741-7.3-11.687-10.008,5.438-4.778,9.149-4.258S-1569.923,626.189-1571.886,629.582Zm36.073,0c-1.962-3.394,13.7-10.042,17.415-10.562s8.093,1.555,9.148,4.258-6.263,8.8-11.687,10.008S-1534.2,632.376-1535.813,629.582Z" transform="translate(1727.604 -526.843)" fill="#292929"/>
  <path id="Path_4" data-name="Path 4" d="M-1623.541,885.969a.656.656,0,0,0-.075.785c.152.3.461.342.8.342h5.191c.292,0,.564.005.732-.233l8.775-12.424,8.733,12.385a.808.808,0,0,0,.733.272h5.191c.337,0,.645-.042.8-.343a.768.768,0,0,0-.076-.86l-11.934-16.27,10.713-14.587a.588.588,0,0,0,.076-.74c-.152-.3-.461-.3-.8-.3h-5.168c-.291,0-.564-.042-.732.2l-7.575,10.684-7.534-10.636c-.167-.239-.441-.243-.733-.243h-5.169c-.337,0-.644,0-.8.305a.74.74,0,0,0,.075.841l10.67,14.561Z" transform="translate(1728.277 -552.708)" fill="#292929"/>
  <path id="Path_5" data-name="Path 5" d="M-1576.515,886.991h4.1c.495,0,.833-.106.833-.6V853.876a.827.827,0,0,0-.833-.876h-3.162a.887.887,0,0,0-.879.716c-.655,3.415-3.139,5.07-7.7,5.07a.846.846,0,0,0-.841.89V862.9c0,.494.129.895.624.895,2.844,0,5.638-.352,6.532-1.07v23.662C-1577.844,886.884-1577.009,886.991-1576.515,886.991Z" transform="translate(1724.193 -552.603)" fill="#292929"/>
  <path id="Path_6" data-name="Path 6" d="M-1556.187,855.731a10.738,10.738,0,0,0-3.4,7.314.61.61,0,0,0,.234.539c.169.184.408.148.657.148h4.252c.468,0,.858-.221.892-.688a5.324,5.324,0,0,1,1.623-3.821,4.994,4.994,0,0,1,3.5-1.263,4.946,4.946,0,0,1,3.666,1.274,4.718,4.718,0,0,1,1.263,3.528,7.486,7.486,0,0,1-1.6,4.726,42.009,42.009,0,0,1-6.472,6.066,34.7,34.7,0,0,0-6.819,6.748,10.256,10.256,0,0,0-1.965,5.939c0,.494.4.748.895.748h21.175c.495,0,.606-.106.606-.6v-3.794c0-.494-.111-.972-.606-.972h-13.933a33.626,33.626,0,0,1,4.878-4.53c3.9-3.247,6.438-5.71,7.776-7.571a11.191,11.191,0,0,0,2.087-6.672,9.549,9.549,0,0,0-2.862-7.055c-1.9-1.871-4.587-2.818-8-2.818A11.243,11.243,0,0,0-1556.187,855.731Z" transform="translate(1721.592 -552.6)" fill="#292929"/>
  <path id="Path_7" data-name="Path 7" d="M-1523.079,855.3a9.723,9.723,0,0,0-3.424,6.779.654.654,0,0,0,.222.576.813.813,0,0,0,.667.179h4.231a.8.8,0,0,0,.889-.675c.326-2.924,1.776-4.226,4.562-4.226a4.161,4.161,0,0,1,3.058,1.059,3.79,3.79,0,0,1,1.041,2.945c0,3.183-1.567,4.476-5.08,4.476h-.938a1.358,1.358,0,0,0-1.09,1.175V870.8a1.162,1.162,0,0,0,1.09.986h1.571a6.615,6.615,0,0,1,4.575,1.344,5.017,5.017,0,0,1,1.486,3.951,5.853,5.853,0,0,1-1.473,4.179,5.046,5.046,0,0,1-3.934,1.561,5.049,5.049,0,0,1-3.9-1.421,4.716,4.716,0,0,1-1.351-3.4.856.856,0,0,0-.894-.849h-4.252a.853.853,0,0,0-.649.232.841.841,0,0,0-.245.64,9.762,9.762,0,0,0,3.36,7.135,11.7,11.7,0,0,0,7.936,2.678,11.654,11.654,0,0,0,8.127-3.006,10.2,10.2,0,0,0,3.322-7.858,9.558,9.558,0,0,0-1.749-5.692,8.24,8.24,0,0,0-3.1-2.609,7.294,7.294,0,0,0,2.005-2.152,8.282,8.282,0,0,0,1.23-4.334,8.655,8.655,0,0,0-2.818-6.646,10.578,10.578,0,0,0-7.409-2.557A10.943,10.943,0,0,0-1523.079,855.3Z" transform="translate(1718.066 -552.601)" fill="#292929"/>
  <path id="Path_8" data-name="Path 8" d="M-1476.969,853h-3.226a.951.951,0,0,0-.736.444L-1495.66,874.6c-.1.148-.34.353-.34.535v3.62c0,.495.765,1.077,1.259,1.077h13.053v6.556c0,.494.1.6.6.6h4.121c.495,0,.648-.106.648-.6v-6.556h3.671c.494,0,.8-.582.8-1.077v-3.62c0-.494-.308-.67-.8-.67h-3.671V854.006C-1476.321,853.513-1476.474,853-1476.969,853Zm-4.719,21.468h-7.54l7.54-11.042Z" transform="translate(1714.803 -552.603)" fill="#292929"/>
</svg>
