<svg id="icon_gavel" xmlns="http://www.w3.org/2000/svg" width="479.106" height="420.169" viewBox="0 0 479.106 420.169">
  <rect id="Rectangle_7" data-name="Rectangle 7" width="88.261" height="109.256" transform="translate(133.28 142.604) rotate(-74.025)" fill="#292929"/>
  <path id="Path_26" data-name="Path 26" d="M-1247.844,2922.851a16.483,16.483,0,0,0-16.366,4.363l-145.062-41.527a10.712,10.712,0,0,0-7.439-12.9,10.715,10.715,0,0,0-11.154,3.414l.325-1.136a10.72,10.72,0,0,0-7.356-13.257,10.718,10.718,0,0,0-12.293,5.066,10.73,10.73,0,0,0-.964,2.29l-9.386,32.787a10.763,10.763,0,0,0-.394,2.454,10.717,10.717,0,0,0,7.75,10.8,10.72,10.72,0,0,0,13.257-7.356l.325-1.136a10.72,10.72,0,0,0,7.658,8.8,10.717,10.717,0,0,0,11.711-4.143l145.623,41.688a16.486,16.486,0,0,0,11.578,12.363,16.491,16.491,0,0,0,20.392-11.315l3.111-10.866A16.491,16.491,0,0,0-1247.844,2922.851Z" transform="translate(1714.993 -2753.605)" fill="#292929"/>
  <path id="Path_27" data-name="Path 27" d="M-1557.994,2785.949c-.019,0-.038-.012-.058-.018a5.963,5.963,0,0,0-4.655,4.215l-.268.936a5.973,5.973,0,0,0,4.093,7.374l114.563,32.795a5.972,5.972,0,0,0,7.375-4.092l.266-.931a5.928,5.928,0,0,0-.518-4.538,5.977,5.977,0,0,0-1.23-1.514l-.03-.007Z" transform="translate(1714.993 -2753.605)" fill="#292929"/>
  <path id="Path_28" data-name="Path 28" d="M-1476.1,2951.684c.02.006.039.013.059.018a5.963,5.963,0,0,0,4.654-4.216l.267-.932a5.923,5.923,0,0,0-.518-4.536,5.922,5.922,0,0,0-3.573-2.839l-114.564-32.8a5.96,5.96,0,0,0-1.638-.232,5.974,5.974,0,0,0-5.736,4.324l-.266.931a5.924,5.924,0,0,0,.518,4.537,5.937,5.937,0,0,0,1.229,1.514l.03.008Z" transform="translate(1714.993 -2753.605)" fill="#292929"/>
  <path id="Path_29" data-name="Path 29" d="M-1554.691,2774.412l119.538,34.22a9.982,9.982,0,0,0,12.33-6.841l.356-1.245a9.907,9.907,0,0,0-.866-7.583,9.906,9.906,0,0,0-5.975-4.748L-1548.846,2754a9.99,9.99,0,0,0-2.759-.39,9.915,9.915,0,0,0-4.823,1.257,9.9,9.9,0,0,0-4.747,5.974l-.357,1.247A9.982,9.982,0,0,0-1554.691,2774.412Z" transform="translate(1714.993 -2753.605)" fill="#292929"/>
  <path id="Path_30" data-name="Path 30" d="M-1479.407,2963.221-1598.945,2929a9.926,9.926,0,0,0-2.74-.387,9.989,9.989,0,0,0-9.59,7.228l-.356,1.247a9.981,9.981,0,0,0,6.841,12.329l119.538,34.221a9.979,9.979,0,0,0,12.33-6.842l.357-1.247A9.982,9.982,0,0,0-1479.407,2963.221Z" transform="translate(1714.993 -2753.605)" fill="#292929"/>
  <path id="Path_31" data-name="Path 31" d="M-1475.855,3140.3c-23.892,9.351-55.554,14.5-89.112,14.5s-65.264-5.151-89.157-14.5c-15.905-6.226-26.876-13.994-33.876-22.687v8.056c0,26.567,55.125,48.1,123,48.1s123-21.536,123-48.1v-8.056C-1449,3126.308-1459.949,3134.076-1475.855,3140.3Z" transform="translate(1714.993 -2753.605)" fill="#292929"/>
  <path id="Path_32" data-name="Path 32" d="M-1665,3079.634c-10.891,6.529-16.889,13.874-16.889,21.066,0,10.061,11.73,20.422,32.183,28.427,22.533,8.819,52.619,13.677,84.716,13.677s62.184-4.858,84.717-13.677c20.452-8,32.183-18.366,32.183-28.427,0-7.2-6.006-14.547-16.91-21.079V3054.26c-5.374,7.836-14.579,14.868-27.164,20.571-19.557,8.864-45.427,13.745-72.844,13.745s-53.287-4.881-72.845-13.745c-12.572-5.7-21.77-12.72-27.147-20.547v25.35Z" transform="translate(1714.993 -2753.605)" fill="#292929"/>
  <path id="Path_33" data-name="Path 33" d="M-1632.9,3063.9c18.035,8.174,42.145,12.675,67.891,12.675s49.856-4.5,67.891-12.675c16.284-7.38,25.624-17.011,25.624-26.425s-9.34-19.046-25.624-26.426c-18.035-8.174-42.146-12.675-67.891-12.675s-49.856,4.5-67.891,12.675c-16.285,7.38-25.624,17.012-25.624,26.426S-1649.184,3056.521-1632.9,3063.9Zm45.228-19.324,3.768-5.237a4.211,4.211,0,0,1,2.486-1.517,4.388,4.388,0,0,1,2.918.29,28.594,28.594,0,0,0,12.476,2.763c5.254,0,8.616-1.907,8.417-4.612-.149-2.021-1.787-3.693-8.875-5.587-8.152-2.106-15.966-4.949-14.565-10.6.963-3.887,5.541-6.555,12.429-7.484l.25-3.1c.045-.6,1.346-.494,2.6-.494h4.1c1.249,0,2.161-.1,2.206.494l.227,2.641a30.351,30.351,0,0,1,8.319,1.345c1.106.314,1.774.977,1.477,1.578l-1.322,2.672a1.978,1.978,0,0,1-1.423.857,4.717,4.717,0,0,1-2.238-.108,27.757,27.757,0,0,0-8.505-1.248c-5.09,0-5.6,1.689-5.637,2.224-.084,1.245,1.067,2.1,8.318,3.863,7.076,1.692,16.047,4.686,18.042,12.5,1.771,6.933-3.483,13.485-14.018,15.98l.8,10.614c.172,2.251-2.265,4.592-4.78,4.592h-8.39a4.058,4.058,0,0,1-3.83-4.592l.749-9.987c-6.563-.587-11.95-2.261-15.316-4.47A2.273,2.273,0,0,1-1587.671,3044.577Z" transform="translate(1714.993 -2753.605)" fill="#292929"/>
  <path id="Path_34" data-name="Path 34" d="M-1659.726,2953.271a8,8,0,0,0,6.816,3.8,7.954,7.954,0,0,0,4.194-1.193,8,8,0,0,0,2.606-11.01l-33.9-54.917a8,8,0,0,0-11.01-2.6,8,8,0,0,0-2.6,11.01Z" transform="translate(1714.993 -2753.605)" fill="#292929"/>
  <path id="Path_35" data-name="Path 35" d="M-1644.218,2978.393l5.052,8.184a8,8,0,0,0,6.815,3.8,7.962,7.962,0,0,0,4.194-1.193,8,8,0,0,0,2.606-11.01l-5.052-8.185a8,8,0,0,0-11.009-2.6A8,8,0,0,0-1644.218,2978.393Z" transform="translate(1714.993 -2753.605)" fill="#292929"/>
  <path id="Path_36" data-name="Path 36" d="M-1670.584,2984.357a8,8,0,0,0-11.314.06,8,8,0,0,0,.061,11.313l11.21,11.092a7.977,7.977,0,0,0,5.626,2.314,7.978,7.978,0,0,0,5.688-2.373,8,8,0,0,0-.06-11.314Z" transform="translate(1714.993 -2753.605)" fill="#292929"/>
  <path id="Path_37" data-name="Path 37" d="M-1689.381,2966.167l-12.1-11.5a8,8,0,0,0-11.31.284,8,8,0,0,0,.285,11.31l12.1,11.5a7.973,7.973,0,0,0,5.511,2.2,7.979,7.979,0,0,0,5.8-2.487A8,8,0,0,0-1689.381,2966.167Z" transform="translate(1714.993 -2753.605)" fill="#292929"/>
  <path id="Path_38" data-name="Path 38" d="M-1448.557,3009.136a7.968,7.968,0,0,0,5.231-1.951l20.676-17.889a8,8,0,0,0,.815-11.284,8,8,0,0,0-11.284-.816l-20.675,17.89a8,8,0,0,0-.816,11.284A7.98,7.98,0,0,0-1448.557,3009.136Z" transform="translate(1714.993 -2753.605)" fill="#292929"/>
  <path id="Path_39" data-name="Path 39" d="M-1353.928,2983.146l-49.748,22.92a8,8,0,0,0-3.919,10.614,8,8,0,0,0,7.271,4.654,7.965,7.965,0,0,0,3.343-.736l49.748-22.921a8,8,0,0,0,3.918-10.613A8,8,0,0,0-1353.928,2983.146Z" transform="translate(1714.993 -2753.605)" fill="#292929"/>
  <path id="Path_40" data-name="Path 40" d="M-1428.426,3017.34l-15.1,6.615a8,8,0,0,0-4.117,10.537,8,8,0,0,0,7.332,4.792,7.965,7.965,0,0,0,3.206-.675l15.1-6.615a8,8,0,0,0,4.117-10.537A8,8,0,0,0-1428.426,3017.34Z" transform="translate(1714.993 -2753.605)" fill="#292929"/>
</svg>
